<?xml version="1.0" standalone="no"?><svg xmlns="http://www.w3.org/2000/svg" viewBox="0 0 1440 320"><path fill="#0099ff" fill-opacity="1" d="M0,224L14.1,218.7C28.2,213,56,203,85,176C112.9,149,141,107,169,122.7C197.6,139,226,213,254,202.7C282.4,192,311,96,339,85.3C367.1,75,395,149,424,176C451.8,203,480,181,508,149.3C536.5,117,565,75,593,74.7C621.2,75,649,117,678,122.7C705.9,128,734,96,762,74.7C790.6,53,819,43,847,58.7C875.3,75,904,117,932,144C960,171,988,181,1016,181.3C1044.7,181,1073,171,1101,154.7C1129.4,139,1158,117,1186,101.3C1214.1,85,1242,75,1271,64C1298.8,53,1327,43,1355,53.3C1383.5,64,1412,96,1426,112L1440,128L1440,320L1425.9,320C1411.8,320,1384,320,1355,320C1327.1,320,1299,320,1271,320C1242.4,320,1214,320,1186,320C1157.6,320,1129,320,1101,320C1072.9,320,1045,320,1016,320C988.2,320,960,320,932,320C903.5,320,875,320,847,320C818.8,320,791,320,762,320C734.1,320,706,320,678,320C649.4,320,621,320,593,320C564.7,320,536,320,508,320C480,320,452,320,424,320C395.3,320,367,320,339,320C310.6,320,282,320,254,320C225.9,320,198,320,169,320C141.2,320,113,320,85,320C56.5,320,28,320,14,320L0,320Z"></path></svg>